<svg width="32" height="20" viewBox="0 0 32 20" fill="none" xmlns="http://www.w3.org/2000/svg">
<g clip-path="url(#clip0_141:1787)">
<path d="M20.3279 2.13892H11.6748V17.8639H20.3279V2.13892Z" fill="#FF5F00"/>
<path d="M12.2235 10C12.222 8.48576 12.5612 6.99101 13.2156 5.62901C13.8701 4.26701 14.8225 3.0735 16.0007 2.1389C14.5419 0.979061 12.7898 0.257684 10.9447 0.0572272C9.09961 -0.14323 7.23597 0.185323 5.56681 1.00533C3.89765 1.82533 2.49034 3.10369 1.50575 4.69429C0.521162 6.28488 -0.000976563 8.12351 -0.000976562 10C-0.000976563 11.8765 0.521162 13.7151 1.50575 15.3057C2.49034 16.8963 3.89765 18.1747 5.56681 18.9947C7.23597 19.8147 9.09961 20.1432 10.9447 19.9428C12.7898 19.7423 14.5419 19.021 16.0007 17.8611C14.8225 16.9265 13.8701 15.733 13.2156 14.371C12.5612 13.009 12.222 11.5143 12.2235 10Z" fill="#EB001B"/>
<path d="M32.0028 10C32.0028 11.8765 31.4806 13.715 30.4961 15.3056C29.5115 16.8961 28.1042 18.1744 26.4351 18.9944C24.766 19.8144 22.9024 20.143 21.0574 19.9426C19.2123 19.7422 17.4603 19.0209 16.0015 17.8611C17.0217 17.0484 17.8737 16.0405 18.5087 14.8948C19.1436 13.7492 19.5493 12.4883 19.7023 11.1841C19.8554 9.87995 19.7529 8.55806 19.4007 7.29395C19.0485 6.02984 18.4535 4.84826 17.6497 3.81669C17.1664 3.19804 16.6133 2.63868 16.0015 2.15002C17.4595 0.990855 19.2106 0.269681 21.0546 0.0688534C22.8987 -0.131974 24.7615 0.19564 26.4302 1.01428C28.0989 1.83293 29.5063 3.1096 30.4917 4.69851C31.4771 6.28742 32.0007 8.12452 32.0028 10Z" fill="#F79E1B"/>
<path d="M31.066 16.1972V15.875H31.1951V15.8083H30.8682V15.875H30.9973V16.1972H31.066ZM31.7005 16.1972V15.8083H31.6016L31.4862 16.0861L31.3709 15.8083H31.2692V16.1972H31.3407V15.9028L31.4478 16.1556H31.522L31.6318 15.9028V16.1972H31.7005Z" fill="#F79E1B"/>
</g>
<defs>
<clipPath id="clip0_141:1787">
<rect width="32" height="20" fill="white"/>
</clipPath>
</defs>
</svg>
