<svg width="32" height="12" viewBox="0 0 32 12" fill="none" xmlns="http://www.w3.org/2000/svg">
<g clip-path="url(#clip0_144:1842)">
<path d="M13.8725 11.0168H11.2622L12.8933 0.988647H15.5037L13.8725 11.0168Z" fill="#0066B3"/>
<path d="M9.05969 0.988647L6.57277 7.88603L6.28035 6.39978L5.4004 1.89006C5.4004 1.89006 5.29577 0.988647 4.16365 0.988647H0.0482898L0 1.15766C0.963522 1.39776 1.88456 1.78409 2.73105 2.3032L4.99799 11.0168H7.71831L11.8739 0.988647H9.05969Z" fill="#0066B3"/>
<path d="M29.602 11.0168H32.0004L29.9078 0.988596H27.8099C27.555 0.969457 27.3006 1.03228 27.0839 1.16789C26.8672 1.30351 26.6995 1.50482 26.6053 1.74245L22.71 11.0168H25.4249L25.9615 9.52783H29.2827L29.602 11.0168ZM26.7287 7.47015L28.0996 3.71428L28.8723 7.47015H26.7287Z" fill="#0066B3"/>
<path d="M22.9134 3.4004L23.2863 1.25419C22.532 0.984727 21.7396 0.837115 20.9389 0.816895C19.6431 0.816895 16.566 1.38296 16.566 4.13547C16.566 6.72702 20.177 6.75921 20.177 8.11937C20.177 9.47954 16.9362 9.23809 15.8685 8.38765L15.4795 10.6224C16.4135 11.0129 17.4183 11.2056 18.4305 11.1885C20.2119 11.1885 22.9 10.2656 22.9 7.7572C22.8973 5.14956 19.2541 4.90543 19.2541 3.7733C19.2541 2.64117 21.7974 2.78336 22.9134 3.4004Z" fill="#0066B3"/>
<path d="M6.28035 6.39978L5.4004 1.89006C5.4004 1.89006 5.29577 0.988647 4.16365 0.988647H0.0482898L0 1.15766C1.41655 1.51881 2.73812 2.18234 3.87391 3.10266C4.95343 3.96964 5.78378 5.10733 6.28035 6.39978Z" fill="#FAA634"/>
</g>
<defs>
<clipPath id="clip0_144:1842">
<rect width="32" height="10.3823" fill="white" transform="translate(0 0.808838)"/>
</clipPath>
</defs>
</svg>
